<svg xmlns="http://www.w3.org/2000/svg" viewBox="0 0 32 32" fill="none">
  <rect width="32" height="32" rx="8" fill="#F45745"/>
  <g transform="translate(4 4) scale(1.0)">
    <path d="M12 2.65 19.4 6.95v10.1L12 21.35 4.6 17.05V6.95L12 2.65Z" fill="rgba(255,255,255,0.15)" stroke="#fff" stroke-width="1.55" stroke-linejoin="round"/>
    <path d="M12 5.35 16.95 8.2v5.6L12 16.65 7.05 13.8V8.2L12 5.35Z" fill="rgba(255,255,255,0.20)" stroke="rgba(255,255,255,0.90)" stroke-width="1.25" stroke-linejoin="round"/>
    <path d="M12 8.15l1 1.9 2.1.3-1.55 1.5.38 2.15L12 12.95 10.07 14l.38-2.15-1.55-1.5 2.1-.3L12 8.15Z" fill="#fff"/>
    <path d="M7.65 7.95 12 10.45l4.35-2.5M7.65 14.05 12 11.55l4.35 2.5" stroke="rgba(255,255,255,0.60)" stroke-width="1.2" stroke-linecap="round" stroke-linejoin="round"/>
  </g>
</svg>
